<mxfile host="app.diagrams.net" modified="2022-03-25T12:38:51.524Z" agent="5.0 (Windows)" etag="_H4a-0Zkwu5FXw6ajScA" version="17.2.3" type="github">
  <diagram id="zR6nFhNXJIPMhd_S2UtX" name="Page-1">
    <mxGraphModel dx="975" dy="576" grid="1" gridSize="10" guides="1" tooltips="1" connect="1" arrows="1" fold="1" page="1" pageScale="1" pageWidth="850" pageHeight="1100" math="0" shadow="0">
      <root>
        <mxCell id="0" />
        <mxCell id="1" parent="0" />
        <mxCell id="zU_dsPpmOjFRfgCL0xd4-1" value="" style="rounded=0;whiteSpace=wrap;html=1;fillColor=default;" vertex="1" parent="1">
          <mxGeometry x="190" y="150" width="440" height="220" as="geometry" />
        </mxCell>
        <mxCell id="zU_dsPpmOjFRfgCL0xd4-14" value="" style="edgeStyle=orthogonalEdgeStyle;rounded=0;orthogonalLoop=1;jettySize=auto;html=1;" edge="1" parent="1" source="zU_dsPpmOjFRfgCL0xd4-2">
          <mxGeometry relative="1" as="geometry">
            <mxPoint x="320" y="280" as="targetPoint" />
            <Array as="points">
              <mxPoint x="320" y="180" />
            </Array>
          </mxGeometry>
        </mxCell>
        <mxCell id="zU_dsPpmOjFRfgCL0xd4-2" value="Dense" style="rounded=0;whiteSpace=wrap;html=1;fillColor=default;" vertex="1" parent="1">
          <mxGeometry x="220" y="160" width="80" height="40" as="geometry" />
        </mxCell>
        <mxCell id="zU_dsPpmOjFRfgCL0xd4-4" value="" style="edgeStyle=orthogonalEdgeStyle;rounded=0;orthogonalLoop=1;jettySize=auto;html=1;" edge="1" parent="1" source="zU_dsPpmOjFRfgCL0xd4-3" target="zU_dsPpmOjFRfgCL0xd4-2">
          <mxGeometry relative="1" as="geometry" />
        </mxCell>
        <mxCell id="zU_dsPpmOjFRfgCL0xd4-3" value="Attention" style="rounded=1;whiteSpace=wrap;html=1;fillColor=default;" vertex="1" parent="1">
          <mxGeometry x="215" y="220" width="90" height="20" as="geometry" />
        </mxCell>
        <mxCell id="zU_dsPpmOjFRfgCL0xd4-9" value="" style="edgeStyle=orthogonalEdgeStyle;rounded=0;orthogonalLoop=1;jettySize=auto;html=1;" edge="1" parent="1" source="zU_dsPpmOjFRfgCL0xd4-5" target="zU_dsPpmOjFRfgCL0xd4-3">
          <mxGeometry relative="1" as="geometry" />
        </mxCell>
        <mxCell id="zU_dsPpmOjFRfgCL0xd4-16" value="" style="edgeStyle=orthogonalEdgeStyle;rounded=0;orthogonalLoop=1;jettySize=auto;html=1;" edge="1" parent="1" source="zU_dsPpmOjFRfgCL0xd4-5">
          <mxGeometry relative="1" as="geometry">
            <mxPoint x="330" y="280" as="targetPoint" />
          </mxGeometry>
        </mxCell>
        <mxCell id="zU_dsPpmOjFRfgCL0xd4-5" value="LSTM" style="rounded=0;whiteSpace=wrap;html=1;fillColor=default;" vertex="1" parent="1">
          <mxGeometry x="220" y="260" width="80" height="40" as="geometry" />
        </mxCell>
        <mxCell id="zU_dsPpmOjFRfgCL0xd4-8" value="" style="edgeStyle=orthogonalEdgeStyle;rounded=0;orthogonalLoop=1;jettySize=auto;html=1;" edge="1" parent="1" source="zU_dsPpmOjFRfgCL0xd4-6" target="zU_dsPpmOjFRfgCL0xd4-5">
          <mxGeometry relative="1" as="geometry" />
        </mxCell>
        <mxCell id="zU_dsPpmOjFRfgCL0xd4-6" value="CNN" style="rounded=1;whiteSpace=wrap;html=1;fillColor=default;" vertex="1" parent="1">
          <mxGeometry x="225" y="320" width="70" height="40" as="geometry" />
        </mxCell>
        <mxCell id="zU_dsPpmOjFRfgCL0xd4-10" value="" style="edgeStyle=orthogonalEdgeStyle;rounded=0;orthogonalLoop=1;jettySize=auto;html=1;" edge="1" parent="1" source="zU_dsPpmOjFRfgCL0xd4-7" target="zU_dsPpmOjFRfgCL0xd4-6">
          <mxGeometry relative="1" as="geometry" />
        </mxCell>
        <mxCell id="zU_dsPpmOjFRfgCL0xd4-7" value="&lt;sub&gt;Xt-b&lt;/sub&gt;" style="ellipse;whiteSpace=wrap;html=1;aspect=fixed;fillColor=default;" vertex="1" parent="1">
          <mxGeometry x="235" y="380" width="50" height="50" as="geometry" />
        </mxCell>
        <mxCell id="zU_dsPpmOjFRfgCL0xd4-39" value="" style="edgeStyle=orthogonalEdgeStyle;rounded=0;orthogonalLoop=1;jettySize=auto;html=1;" edge="1" parent="1" source="zU_dsPpmOjFRfgCL0xd4-19">
          <mxGeometry relative="1" as="geometry">
            <mxPoint x="490" y="280" as="targetPoint" />
            <Array as="points">
              <mxPoint x="470" y="180" />
              <mxPoint x="470" y="180" />
            </Array>
          </mxGeometry>
        </mxCell>
        <mxCell id="zU_dsPpmOjFRfgCL0xd4-19" value="Dense" style="rounded=0;whiteSpace=wrap;html=1;fillColor=default;" vertex="1" parent="1">
          <mxGeometry x="385" y="160" width="80" height="40" as="geometry" />
        </mxCell>
        <mxCell id="zU_dsPpmOjFRfgCL0xd4-29" value="" style="edgeStyle=orthogonalEdgeStyle;rounded=0;orthogonalLoop=1;jettySize=auto;html=1;" edge="1" parent="1" source="zU_dsPpmOjFRfgCL0xd4-20" target="zU_dsPpmOjFRfgCL0xd4-19">
          <mxGeometry relative="1" as="geometry" />
        </mxCell>
        <mxCell id="zU_dsPpmOjFRfgCL0xd4-20" value="Attention" style="rounded=1;whiteSpace=wrap;html=1;fillColor=default;" vertex="1" parent="1">
          <mxGeometry x="380" y="220" width="90" height="20" as="geometry" />
        </mxCell>
        <mxCell id="zU_dsPpmOjFRfgCL0xd4-30" value="" style="edgeStyle=orthogonalEdgeStyle;rounded=0;orthogonalLoop=1;jettySize=auto;html=1;" edge="1" parent="1" source="zU_dsPpmOjFRfgCL0xd4-21" target="zU_dsPpmOjFRfgCL0xd4-20">
          <mxGeometry relative="1" as="geometry" />
        </mxCell>
        <mxCell id="zU_dsPpmOjFRfgCL0xd4-38" value="" style="edgeStyle=orthogonalEdgeStyle;rounded=0;orthogonalLoop=1;jettySize=auto;html=1;" edge="1" parent="1" source="zU_dsPpmOjFRfgCL0xd4-21" target="zU_dsPpmOjFRfgCL0xd4-26">
          <mxGeometry relative="1" as="geometry" />
        </mxCell>
        <mxCell id="zU_dsPpmOjFRfgCL0xd4-21" value="LSTM" style="rounded=0;whiteSpace=wrap;html=1;fillColor=default;" vertex="1" parent="1">
          <mxGeometry x="385" y="260" width="80" height="40" as="geometry" />
        </mxCell>
        <mxCell id="zU_dsPpmOjFRfgCL0xd4-31" value="" style="edgeStyle=orthogonalEdgeStyle;rounded=0;orthogonalLoop=1;jettySize=auto;html=1;" edge="1" parent="1" source="zU_dsPpmOjFRfgCL0xd4-22" target="zU_dsPpmOjFRfgCL0xd4-21">
          <mxGeometry relative="1" as="geometry" />
        </mxCell>
        <mxCell id="zU_dsPpmOjFRfgCL0xd4-22" value="CNN" style="rounded=1;whiteSpace=wrap;html=1;fillColor=default;" vertex="1" parent="1">
          <mxGeometry x="390" y="320" width="70" height="40" as="geometry" />
        </mxCell>
        <mxCell id="zU_dsPpmOjFRfgCL0xd4-32" value="" style="edgeStyle=orthogonalEdgeStyle;rounded=0;orthogonalLoop=1;jettySize=auto;html=1;" edge="1" parent="1" source="zU_dsPpmOjFRfgCL0xd4-23" target="zU_dsPpmOjFRfgCL0xd4-22">
          <mxGeometry relative="1" as="geometry" />
        </mxCell>
        <mxCell id="zU_dsPpmOjFRfgCL0xd4-23" value="&lt;sub&gt;Xt-2&lt;/sub&gt;" style="ellipse;whiteSpace=wrap;html=1;aspect=fixed;fillColor=default;" vertex="1" parent="1">
          <mxGeometry x="400" y="380" width="50" height="50" as="geometry" />
        </mxCell>
        <mxCell id="zU_dsPpmOjFRfgCL0xd4-42" value="" style="edgeStyle=orthogonalEdgeStyle;rounded=0;orthogonalLoop=1;jettySize=auto;html=1;" edge="1" parent="1" source="zU_dsPpmOjFRfgCL0xd4-24">
          <mxGeometry relative="1" as="geometry">
            <mxPoint x="565" y="110" as="targetPoint" />
          </mxGeometry>
        </mxCell>
        <mxCell id="zU_dsPpmOjFRfgCL0xd4-24" value="Dense" style="rounded=0;whiteSpace=wrap;html=1;fillColor=default;" vertex="1" parent="1">
          <mxGeometry x="525" y="160" width="80" height="40" as="geometry" />
        </mxCell>
        <mxCell id="zU_dsPpmOjFRfgCL0xd4-33" value="" style="edgeStyle=orthogonalEdgeStyle;rounded=0;orthogonalLoop=1;jettySize=auto;html=1;" edge="1" parent="1" source="zU_dsPpmOjFRfgCL0xd4-25" target="zU_dsPpmOjFRfgCL0xd4-24">
          <mxGeometry relative="1" as="geometry" />
        </mxCell>
        <mxCell id="zU_dsPpmOjFRfgCL0xd4-34" style="edgeStyle=orthogonalEdgeStyle;rounded=0;orthogonalLoop=1;jettySize=auto;html=1;exitX=0.5;exitY=0;exitDx=0;exitDy=0;" edge="1" parent="1" source="zU_dsPpmOjFRfgCL0xd4-25">
          <mxGeometry relative="1" as="geometry">
            <mxPoint x="570" y="240" as="targetPoint" />
          </mxGeometry>
        </mxCell>
        <mxCell id="zU_dsPpmOjFRfgCL0xd4-25" value="Attention" style="rounded=1;whiteSpace=wrap;html=1;fillColor=default;" vertex="1" parent="1">
          <mxGeometry x="520" y="220" width="90" height="20" as="geometry" />
        </mxCell>
        <mxCell id="zU_dsPpmOjFRfgCL0xd4-35" value="" style="edgeStyle=orthogonalEdgeStyle;rounded=0;orthogonalLoop=1;jettySize=auto;html=1;" edge="1" parent="1" source="zU_dsPpmOjFRfgCL0xd4-26" target="zU_dsPpmOjFRfgCL0xd4-25">
          <mxGeometry relative="1" as="geometry" />
        </mxCell>
        <mxCell id="zU_dsPpmOjFRfgCL0xd4-26" value="LSTM" style="rounded=0;whiteSpace=wrap;html=1;fillColor=default;" vertex="1" parent="1">
          <mxGeometry x="525" y="260" width="80" height="40" as="geometry" />
        </mxCell>
        <mxCell id="zU_dsPpmOjFRfgCL0xd4-36" value="" style="edgeStyle=orthogonalEdgeStyle;rounded=0;orthogonalLoop=1;jettySize=auto;html=1;" edge="1" parent="1" source="zU_dsPpmOjFRfgCL0xd4-27" target="zU_dsPpmOjFRfgCL0xd4-26">
          <mxGeometry relative="1" as="geometry" />
        </mxCell>
        <mxCell id="zU_dsPpmOjFRfgCL0xd4-27" value="CNN" style="rounded=1;whiteSpace=wrap;html=1;fillColor=default;" vertex="1" parent="1">
          <mxGeometry x="530" y="320" width="70" height="40" as="geometry" />
        </mxCell>
        <mxCell id="zU_dsPpmOjFRfgCL0xd4-37" value="" style="edgeStyle=orthogonalEdgeStyle;rounded=0;orthogonalLoop=1;jettySize=auto;html=1;" edge="1" parent="1" source="zU_dsPpmOjFRfgCL0xd4-28" target="zU_dsPpmOjFRfgCL0xd4-27">
          <mxGeometry relative="1" as="geometry" />
        </mxCell>
        <mxCell id="zU_dsPpmOjFRfgCL0xd4-28" value="&lt;sub&gt;Xt-1&lt;/sub&gt;" style="ellipse;whiteSpace=wrap;html=1;aspect=fixed;fillColor=default;" vertex="1" parent="1">
          <mxGeometry x="540" y="380" width="50" height="50" as="geometry" />
        </mxCell>
        <mxCell id="zU_dsPpmOjFRfgCL0xd4-40" value="" style="endArrow=classic;html=1;rounded=0;entryX=0;entryY=0.5;entryDx=0;entryDy=0;" edge="1" parent="1" target="zU_dsPpmOjFRfgCL0xd4-21">
          <mxGeometry width="50" height="50" relative="1" as="geometry">
            <mxPoint x="360" y="280" as="sourcePoint" />
            <mxPoint x="390" y="255" as="targetPoint" />
          </mxGeometry>
        </mxCell>
        <mxCell id="zU_dsPpmOjFRfgCL0xd4-43" value="X&lt;sub&gt;t&lt;/sub&gt;" style="ellipse;whiteSpace=wrap;html=1;aspect=fixed;fillColor=default;" vertex="1" parent="1">
          <mxGeometry x="537.5" y="50" width="55" height="55" as="geometry" />
        </mxCell>
        <mxCell id="zU_dsPpmOjFRfgCL0xd4-45" value=". . ." style="text;html=1;strokeColor=none;fillColor=none;align=center;verticalAlign=middle;whiteSpace=wrap;rounded=0;fontStyle=1" vertex="1" parent="1">
          <mxGeometry x="320" y="260" width="60" height="30" as="geometry" />
        </mxCell>
        <mxCell id="zU_dsPpmOjFRfgCL0xd4-56" value=". . ." style="text;html=1;strokeColor=none;fillColor=none;align=center;verticalAlign=middle;whiteSpace=wrap;rounded=0;fontStyle=1" vertex="1" parent="1">
          <mxGeometry x="320" y="310" width="60" height="30" as="geometry" />
        </mxCell>
        <mxCell id="zU_dsPpmOjFRfgCL0xd4-57" value=". . ." style="text;html=1;strokeColor=none;fillColor=none;align=center;verticalAlign=middle;whiteSpace=wrap;rounded=0;fontStyle=1" vertex="1" parent="1">
          <mxGeometry x="320" y="380" width="60" height="30" as="geometry" />
        </mxCell>
        <mxCell id="zU_dsPpmOjFRfgCL0xd4-58" value=". . ." style="text;html=1;strokeColor=none;fillColor=none;align=center;verticalAlign=middle;whiteSpace=wrap;rounded=0;fontStyle=1" vertex="1" parent="1">
          <mxGeometry x="320" y="215" width="60" height="30" as="geometry" />
        </mxCell>
      </root>
    </mxGraphModel>
  </diagram>
</mxfile>
